<svg width="248" height="23" viewBox="0 0 248 23" fill="none" xmlns="http://www.w3.org/2000/svg">
<path fill-rule="evenodd" clip-rule="evenodd" d="M77.73 0.280029V22.13H54.51V0.280029H77.73ZM73.11 14.86L72.74 15.09C71.0835 16.1432 69.1723 16.7273 67.21 16.78C63.41 16.78 60.9 14.51 60.89 11.23C60.88 7.95003 63.51 5.65003 67.11 5.64003C69.0391 5.66816 70.9263 6.20639 72.58 7.20003L72.94 7.40003V4.47003L72.78 4.41003C70.9966 3.62518 69.0778 3.19387 67.13 3.14003C64.7381 3.08083 62.4099 3.91511 60.6 5.48003C59.7652 6.23747 59.1022 7.16477 58.6555 8.19966C58.2088 9.23454 57.9887 10.353 58.01 11.48C58.0552 13.4135 58.8263 15.2591 60.17 16.65C61.0644 17.5373 62.1333 18.2292 63.3089 18.6819C64.4846 19.1347 65.7415 19.3383 67 19.28C69.0819 19.321 71.1422 18.8506 73 17.91L73.14 17.84L73.11 14.86ZM51 0.280029V22.13H27.75V0.280029H51ZM45.46 14.76C45.4432 13.7861 45.0891 12.8481 44.4582 12.106C43.8273 11.3638 42.9585 10.8634 42 10.69C42.5257 10.4364 42.9872 10.0672 43.35 9.61003C43.8011 8.99005 44.0301 8.23615 44 7.47003C44.0021 6.93216 43.8899 6.39997 43.671 5.90867C43.4521 5.41737 43.1313 4.97814 42.73 4.62003C41.6067 3.70157 40.1782 3.24088 38.73 3.33003H33.84V19.08H39.65C41.2571 19.1816 42.8452 18.6866 44.11 17.69C44.532 17.3271 44.871 16.8775 45.104 16.372C45.3369 15.8664 45.4583 15.3167 45.46 14.76Z" fill="white" stroke="white" stroke-width="0.335"/>
<path fill-rule="evenodd" clip-rule="evenodd" d="M42.57 14.45C42.5779 14.7232 42.5256 14.9947 42.4167 15.2453C42.3078 15.4959 42.1451 15.7195 41.94 15.9C41.1885 16.4458 40.2651 16.7015 39.34 16.62H36.66V12.32H39.22C40.1197 12.2616 41.0159 12.4778 41.79 12.94C42.0369 13.1054 42.238 13.3306 42.3743 13.5946C42.5107 13.8587 42.578 14.153 42.57 14.45ZM40.4 9.31003C40.6519 9.1238 40.8521 8.87634 40.9816 8.59109C41.1111 8.30584 41.1656 7.99225 41.14 7.68003C41.1535 7.43613 41.113 7.19226 41.0214 6.96581C40.9297 6.73937 40.7893 6.53594 40.61 6.37003C40.0193 5.93594 39.29 5.73318 38.56 5.80003H36.66V9.87003H38C38.8379 9.92694 39.6738 9.73191 40.4 9.31003ZM24.22 0.280029V22.13H1V0.280029H24.22ZM18.7 14.76C18.6845 13.7904 18.3347 12.8558 17.7098 12.1142C17.0848 11.3726 16.223 10.8696 15.27 10.69C15.7959 10.4367 16.2574 10.0675 16.62 9.61003C17.0689 8.99278 17.2978 8.24276 17.27 7.48003C17.2721 6.94216 17.1599 6.40997 16.941 5.91867C16.7221 5.42737 16.4013 4.98814 16 4.63003C14.8767 3.71157 13.4482 3.25088 12 3.34003H7V19.08H12.9C14.5071 19.1816 16.0952 18.6866 17.36 17.69C17.7797 17.3257 18.1165 16.8757 18.3476 16.3703C18.5787 15.8649 18.6989 15.3158 18.7 14.76Z" fill="white" stroke="white" stroke-width="0.335"/>
<path fill-rule="evenodd" clip-rule="evenodd" d="M13.64 9.30996C13.8912 9.12309 14.0908 8.87551 14.2203 8.59043C14.3497 8.30534 14.4046 7.99208 14.38 7.67996C14.3935 7.43606 14.3529 7.19219 14.2613 6.96575C14.1697 6.73931 14.0293 6.53587 13.85 6.36996C13.2592 5.93588 12.53 5.73311 11.8 5.79996H9.90997V9.86996H11.21C12.0579 9.93298 12.9051 9.73774 13.64 9.30996ZM15 12.94C14.2259 12.4777 13.3297 12.2615 12.43 12.32H9.90997V16.61H12.59C13.5151 16.6914 14.4385 16.4357 15.19 15.89C15.395 15.7094 15.5578 15.4858 15.6667 15.2352C15.7756 14.9846 15.8279 14.7131 15.82 14.44C15.822 14.1409 15.7478 13.8462 15.6043 13.5837C15.4608 13.3213 15.2529 13.0997 15 12.94ZM102 3.33996H104.15V19.12H102.21L91.69 6.99996V19.12H89.57V3.33996H91.4L102 15.6V3.33996ZM108.26 3.33996H117.21V5.33996H110.52V10.15H117V12.15H110.54V17.05H117.44V19.05H108.28L108.26 3.33996ZM141.33 3.33996H143.58L137.2 19.19H136.7L131.54 6.34996L126.33 19.19H125.84L119.48 3.33996H121.76L126.11 14.22L130.49 3.33996H132.63L137 14.22L141.33 3.33996ZM149.7 12.51L147.98 11.51C147.095 11.0187 146.313 10.3598 145.68 9.56996C145.224 8.92825 144.985 8.15716 145 7.36996C144.984 6.80621 145.091 6.24575 145.314 5.72764C145.537 5.20953 145.87 4.74621 146.29 4.36996C147.222 3.57024 148.423 3.15546 149.65 3.20996C150.945 3.20183 152.211 3.58908 153.28 4.31996V6.80996C152.807 6.30806 152.239 5.90476 151.609 5.62329C150.979 5.34183 150.3 5.18776 149.61 5.16996C148.964 5.13942 148.326 5.3183 147.79 5.67996C147.57 5.822 147.389 6.01759 147.265 6.24844C147.141 6.47929 147.077 6.73786 147.08 6.99996C147.084 7.49218 147.269 7.96573 147.6 8.32996C148.089 8.85203 148.66 9.29109 149.29 9.62996L151.02 10.63C152.947 11.7833 153.91 13.2466 153.91 15.02C153.932 15.5945 153.83 16.167 153.611 16.6985C153.392 17.23 153.061 17.708 152.64 18.1C151.738 18.9123 150.553 19.3393 149.34 19.29C147.8 19.2961 146.301 18.7895 145.08 17.85V15C145.553 15.694 146.184 16.266 146.921 16.6693C147.658 17.0725 148.48 17.2955 149.32 17.32C149.962 17.3434 150.591 17.1339 151.09 16.73C151.314 16.5545 151.495 16.3297 151.618 16.073C151.741 15.8163 151.803 15.5347 151.8 15.25C151.787 14.2833 151.087 13.37 149.7 12.51Z" fill="white" stroke="white" stroke-width="0.335"/>
<path fill-rule="evenodd" clip-rule="evenodd" d="M169.37 0V22.59V0Z" fill="black"/>
<path d="M169.37 0V22.59" stroke="white" stroke-width="2"/>
<path fill-rule="evenodd" clip-rule="evenodd" d="M193.92 6.29995H195.34V16.8699H193.82V8.63995L190.57 12.7299H190.29L187 8.63995V16.8699H185.49V6.29995H186.92L190.43 10.6399L193.92 6.29995ZM206 6.29995H207.52V12.2999C207.54 12.9185 207.479 13.537 207.34 14.1399C207.24 14.4918 207.092 14.8283 206.9 15.1399C206.724 15.4169 206.509 15.6662 206.26 15.8799C205.302 16.5804 204.147 16.958 202.96 16.958C201.773 16.958 200.618 16.5804 199.66 15.8799C199.411 15.6623 199.196 15.4096 199.02 15.1299C198.83 14.8185 198.685 14.4819 198.59 14.1299C198.454 13.513 198.397 12.8813 198.42 12.2499V6.24995H200V12.2499C199.947 12.9572 200.064 13.6668 200.34 14.3199C200.578 14.7192 200.925 15.0419 201.34 15.2499C201.851 15.4941 202.413 15.614 202.98 15.5999C203.77 15.6349 204.547 15.3867 205.17 14.8999C205.456 14.6626 205.676 14.3563 205.81 14.0099C205.971 13.4379 206.039 12.8436 206.01 12.2499L206 6.29995ZM219 6.29995H220.44V16.8699H219.14L212.07 8.72995V16.8699H210.65V6.29995H211.88L219 14.5099V6.29995ZM223.69 16.8499V6.29995H227.25C228.422 6.24733 229.59 6.46994 230.66 6.94995C231.496 7.37775 232.19 8.03744 232.66 8.84995C233.152 9.67882 233.408 10.6263 233.4 11.5899C233.397 12.2772 233.258 12.9571 232.99 13.5899C232.71 14.2441 232.3 14.8342 231.784 15.3243C231.268 15.8143 230.658 16.1939 229.99 16.4399C229.635 16.5824 229.267 16.6863 228.89 16.7499C228.256 16.8182 227.618 16.8449 226.98 16.8299L223.69 16.8499ZM227.1 7.63995H225.21V15.4999H227.15C227.741 15.5139 228.331 15.4602 228.91 15.3399C229.259 15.2541 229.595 15.123 229.91 14.9499C230.192 14.789 230.451 14.5905 230.68 14.3599C231.051 13.982 231.341 13.5329 231.534 13.0396C231.726 12.5463 231.817 12.0192 231.8 11.4899C231.818 10.9713 231.725 10.4548 231.527 9.9752C231.328 9.49564 231.029 9.06419 230.65 8.70995C230.355 8.4368 230.017 8.21384 229.65 8.04995C229.333 7.89366 228.997 7.77936 228.65 7.70995C228.136 7.64867 227.618 7.62528 227.1 7.63995ZM241.23 6.13995C241.979 6.11652 242.725 6.24141 243.425 6.50743C244.125 6.77344 244.766 7.17533 245.31 7.68995C245.841 8.18658 246.261 8.78997 246.541 9.46043C246.822 10.1309 246.958 10.8532 246.94 11.5799C246.959 12.3056 246.821 13.0268 246.536 13.6946C246.252 14.3623 245.827 14.961 245.29 15.4499C244.166 16.4882 242.68 17.0446 241.15 16.9999C240.415 17.0248 239.682 16.9022 238.995 16.6395C238.308 16.3767 237.681 15.979 237.15 15.4699C236.631 14.977 236.221 14.3804 235.947 13.7189C235.673 13.0574 235.541 12.3457 235.56 11.6299C235.538 10.901 235.669 10.1756 235.945 9.50044C236.22 8.82527 236.634 8.21534 237.16 7.70995C237.699 7.1888 238.336 6.78126 239.036 6.51155C239.735 6.24183 240.481 6.11546 241.23 6.13995ZM241.29 7.57995C240.74 7.55714 240.19 7.64544 239.675 7.83959C239.16 8.03373 238.688 8.32974 238.29 8.70995C237.904 9.08534 237.6 9.53715 237.399 10.0365C237.198 10.5359 237.103 11.0718 237.12 11.6099C237.105 12.1404 237.202 12.668 237.403 13.1588C237.605 13.6497 237.907 14.0929 238.29 14.4599C239.093 15.1985 240.144 15.6085 241.235 15.6085C242.326 15.6085 243.377 15.1985 244.18 14.4599C244.565 14.0877 244.869 13.6395 245.072 13.1438C245.275 12.648 245.373 12.1155 245.36 11.5799C245.372 11.052 245.273 10.5274 245.07 10.0399C244.867 9.5525 244.563 9.11306 244.18 8.74995C243.801 8.37138 243.35 8.07275 242.854 7.87178C242.357 7.6708 241.825 7.57156 241.29 7.57995Z" fill="white" stroke="white" stroke-width="0.335"/>
</svg>
