<svg width="99" height="99" viewBox="0 0 99 99" fill="none" xmlns="http://www.w3.org/2000/svg">
<g filter="url(#filter0_d)">
<path d="M49.5 0L53.1789 4.62422L57.6243 0.731205L60.4184 5.938L65.4876 2.90131L67.307 8.52333L72.8369 6.44058L73.6233 12.2971L79.4362 11.2352L79.1642 17.1381L85.0733 17.1312L83.7517 22.8906L89.5671 23.939L87.2383 29.3699L92.7731 31.4397L89.512 36.3675L94.5882 39.3924L90.4997 43.6587L94.9542 47.5414L90.1696 51.0091L93.8592 55.6247L88.5323 58.1824L91.3385 63.3826L85.6405 64.948L87.4731 70.5658L81.5871 71.0886L82.3872 76.9434L76.5025 76.4068L76.2442 82.3103L70.5499 80.7316L69.2417 86.4941L63.9208 83.924L61.6047 89.3603L56.8282 85.8815L53.5786 90.8168L49.5 86.541L45.4214 90.8168L42.1718 85.8815L37.3953 89.3603L35.0792 83.924L29.7583 86.4941L28.4501 80.7316L22.7558 82.3103L22.4975 76.4068L16.6128 76.9434L17.4129 71.0886L11.5269 70.5658L13.3595 64.948L7.66149 63.3826L10.4677 58.1824L5.14078 55.6247L8.83043 51.0091L4.04581 47.5414L8.50032 43.6587L4.41179 39.3924L9.48798 36.3675L6.22693 31.4397L11.7617 29.3699L9.4329 23.939L15.2483 22.8906L13.9267 17.1312L19.8358 17.1381L19.5638 11.2352L25.3767 12.2971L26.1631 6.44058L31.693 8.52333L33.5124 2.90131L38.5816 5.938L41.3757 0.731205L45.8211 4.62422L49.5 0Z" fill="#FF2559"/>
</g>
<defs>
<filter id="filter0_d" x="0.0458069" y="0" width="98.9084" height="98.8168" filterUnits="userSpaceOnUse" color-interpolation-filters="sRGB">
<feFlood flood-opacity="0" result="BackgroundImageFix"/>
<feColorMatrix in="SourceAlpha" type="matrix" values="0 0 0 0 0 0 0 0 0 0 0 0 0 0 0 0 0 0 127 0" result="hardAlpha"/>
<feOffset dy="4"/>
<feGaussianBlur stdDeviation="2"/>
<feColorMatrix type="matrix" values="0 0 0 0 0 0 0 0 0 0 0 0 0 0 0 0 0 0 0.25 0"/>
<feBlend mode="normal" in2="BackgroundImageFix" result="effect1_dropShadow"/>
<feBlend mode="normal" in="SourceGraphic" in2="effect1_dropShadow" result="shape"/>
</filter>
</defs>
</svg>
